<?xml version="1.0" encoding="UTF-8" standalone="no"?>
<!-- Created with Inkscape (http://www.inkscape.org/) -->

<svg
   version="1.1"
   id="svg2"
   xml:space="preserve"
   width="394.18265"
   height="394.16531"
   viewBox="0 0 394.18265 394.16532"
   sodipodi:docname="ESULogo.svg"
   inkscape:version="1.1 (c4e8f9ed74, 2021-05-24)"
   xmlns:inkscape="http://www.inkscape.org/namespaces/inkscape"
   xmlns:sodipodi="http://sodipodi.sourceforge.net/DTD/sodipodi-0.dtd"
   xmlns="http://www.w3.org/2000/svg"
   xmlns:svg="http://www.w3.org/2000/svg"><defs
     id="defs6"><clipPath
       clipPathUnits="userSpaceOnUse"
       id="clipPath16"><path
         d="M 0,368 H 368 V 0 H 0 Z"
         id="path14" /></clipPath></defs><sodipodi:namedview
     id="namedview4"
     pagecolor="#505050"
     bordercolor="#eeeeee"
     borderopacity="1"
     inkscape:pageshadow="0"
     inkscape:pageopacity="0"
     inkscape:pagecheckerboard="0"
     showgrid="false"
     inkscape:zoom="1.5346468"
     inkscape:cx="105.23594"
     inkscape:cy="241.42363"
     inkscape:window-width="2560"
     inkscape:window-height="1404"
     inkscape:window-x="0"
     inkscape:window-y="1236"
     inkscape:window-maximized="1"
     inkscape:current-layer="g8"
     fit-margin-top="0"
     fit-margin-left="0"
     fit-margin-right="0"
     fit-margin-bottom="0" /><g
     id="g8"
     inkscape:groupmode="layer"
     inkscape:label="ESU2021variations"
     transform="matrix(1.3333333,0,0,-1.3333333,-48.241999,442.41586)"><path
       id="esu-logo"
       style="fill:#ffe600;fill-opacity:1;fill-rule:nonzero;stroke:none;stroke-width:1.33333"
       d="M 207.1543 0 L 177.75391 0.84179688 L 175.06836 23.773438 C 165.20436 25.028104 155.57291 27.099547 146.26758 29.935547 L 134.41406 10.097656 L 107.25391 21.373047 L 82.21875 36.806641 L 91.388672 58.050781 C 83.571339 63.994781 76.255682 70.602057 69.541016 77.775391 L 49.339844 66.490234 L 31.457031 89.816406 L 17.470703 115.71289 L 35.980469 129.48633 C 32.227136 138.47299 29.190833 147.8461 26.9375 157.52344 L 3.8300781 157.87695 L 0 187.02344 L 0.83984375 216.40039 L 23.792969 219.11133 C 25.047635 228.97133 27.11626 238.60473 29.933594 247.91406 L 10.115234 259.73633 L 21.390625 286.92578 L 36.806641 311.93945 L 58.050781 302.78906 C 63.998781 310.60906 70.607391 317.90847 77.775391 324.61914 L 66.490234 344.83789 L 89.822266 362.72461 L 115.72461 376.72461 L 129.50586 358.19531 C 138.47386 361.94865 147.84601 364.99115 157.52734 367.25781 L 157.86328 390.34766 L 187.02344 394.16602 L 216.41992 393.33594 L 219.09961 370.4043 C 228.97828 369.1363 238.60302 367.06147 247.92969 364.24414 L 259.75 384.08203 L 286.91016 372.79297 L 311.94531 357.37109 L 302.78711 336.11133 C 310.62711 330.16466 317.90872 323.57496 324.63672 316.4043 L 344.85547 327.66992 L 362.75586 304.35547 L 376.70703 278.45312 L 358.18359 264.67773 C 361.95426 255.67373 365.00848 246.31892 367.25781 236.65625 L 390.35156 236.29297 L 394.18359 207.15625 L 393.33984 177.75781 L 370.4043 175.05078 C 369.15363 165.21078 367.06452 155.57267 364.22852 146.25 L 384.0625 134.42773 L 372.82227 107.24805 L 357.37109 82.21875 L 336.12695 91.388672 C 330.16429 83.567339 323.59168 76.251682 316.40234 69.541016 L 327.67383 49.341797 L 304.3418 31.439453 L 278.47656 17.451172 L 264.69531 35.980469 C 255.70465 32.209802 246.33724 29.171302 236.64258 26.917969 L 236.31055 3.8300781 L 207.1543 0 z M 196.99414 46.441406 C 199.56456 46.442134 202.15001 46.508333 204.74609 46.640625 C 287.87943 50.887292 351.77187 121.66086 347.5332 204.74219 C 343.29054 287.84485 272.50824 351.76672 189.37891 347.52539 C 106.30291 343.28672 42.411198 272.48166 46.644531 189.375 C 50.758489 108.89513 117.31128 46.41884 196.99414 46.441406 z M 196.99805 53.255859 C 120.91943 53.22536 57.381114 112.88141 53.457031 189.72266 C 49.405031 269.06665 110.40985 336.66613 189.72852 340.7168 C 269.10185 344.77146 336.67652 283.73596 340.72852 204.39062 C 344.77918 125.07196 283.77044 57.499266 204.39844 53.447266 C 201.91977 53.320641 199.4522 53.256843 196.99805 53.255859 z M 183.50586 71.478516 L 190.07617 71.478516 L 195.62695 80.714844 L 195.62695 76.013672 L 194.41602 76.013672 L 194.41602 71.478516 L 202.39062 71.478516 L 202.39062 76.013672 L 201.17969 76.013672 L 201.17969 87.115234 L 202.39062 87.115234 L 202.39062 91.671875 L 195.70117 91.671875 L 190.26953 82.630859 L 190.26953 87.115234 L 191.48242 87.115234 L 191.48242 91.671875 L 183.50586 91.671875 L 183.50586 87.115234 L 184.7207 87.115234 L 184.7207 76.013672 L 183.50586 76.013672 L 183.50586 71.478516 z M 211.83398 72.234375 L 220.61719 73.628906 L 223.30078 77.314453 L 222.59375 81.769531 L 217.11133 80.900391 L 217.51172 78.384766 L 216.99023 77.640625 L 214.06836 77.179688 L 213.32031 77.722656 L 211.78711 87.419922 L 212.33008 88.142578 L 215.25195 88.605469 L 215.97656 88.080078 L 216.27539 86.189453 L 214.76562 85.953125 L 215.41016 81.882812 L 222.40039 82.990234 L 221.15234 90.888672 L 217.46289 93.566406 L 208.67383 92.177734 L 205.99609 88.488281 L 208.14648 74.914062 L 211.83398 72.234375 z M 177.76172 72.994141 L 178.39258 77.482422 L 177.19141 77.652344 L 178.73438 88.642578 L 179.93359 88.472656 L 180.57031 92.986328 L 172.67383 94.095703 L 172.04102 89.583984 L 173.24023 89.414062 L 171.69531 78.423828 L 170.49805 78.589844 L 169.86719 74.103516 L 177.76172 72.994141 z M 159.28125 77.339844 L 163.3418 79.410156 L 164.93555 84.318359 L 164.08008 85.996094 L 165.75586 86.851562 L 167.17383 91.208984 L 168.32617 90.832031 L 169.73242 95.162109 L 163.30469 97.251953 L 160.97656 90.087891 L 160.15234 89.667969 L 157.52344 90.519531 L 158.64453 93.978516 L 159.79688 93.603516 L 161.20312 97.933594 L 153.62305 100.39844 L 152.21289 96.068359 L 153.36914 95.693359 L 149.93945 85.138672 L 148.78711 85.515625 L 147.38477 81.205078 L 159.28125 77.339844 z M 157.8457 82.572266 L 155.21484 83.421875 L 156.11914 86.210938 L 158.75 85.357422 L 159.16992 84.533203 L 158.66797 82.992188 L 157.8457 82.572266 z M 141.48438 84.322266 L 143.99023 89.029297 L 139.9668 91.171875 L 139.58984 90.464844 L 136.46289 92.125 L 138.01367 95.037109 L 138.74219 94.648438 L 138.36719 93.943359 L 142.36719 91.814453 L 145.24805 97.228516 L 141.24219 99.357422 L 140.86719 98.650391 L 140.14062 99.039062 L 141.67578 101.92578 L 144.80469 100.26367 L 144.42773 99.560547 L 148.45117 97.421875 L 150.96289 102.14844 L 137.8457 109.125 L 135.70703 105.10352 L 136.77539 104.5332 L 131.5625 94.730469 L 130.49609 95.300781 L 128.36719 91.296875 L 141.48438 84.322266 z M 257.52344 85.703125 L 265.29883 90.013672 L 266.55469 94.396484 L 264.62695 97.869141 L 259.77539 95.179688 L 260.75 93.423828 L 260.51562 92.542969 L 257.92969 91.113281 L 257.04102 91.367188 L 256.05664 93.144531 L 256.31055 94.037109 L 261.48047 96.900391 L 262.73633 101.28516 L 259.89258 106.41016 L 255.51367 107.66797 L 247.73828 103.35352 L 246.48242 98.974609 L 248.36133 95.583984 L 253.21289 98.273438 L 252.2832 99.945312 L 252.54883 100.81445 L 255.13672 102.24805 L 255.99219 102.00391 L 256.93164 100.31055 L 256.69922 99.429688 L 251.50781 96.554688 L 250.25195 92.175781 L 253.14062 86.960938 L 257.52344 85.703125 z M 273.45312 95.539062 L 279.5625 100.66406 L 276.64844 104.13477 L 275.7207 103.35547 L 268.99023 111.37305 L 269.08594 112.2793 L 271.35352 114.17578 L 272.23828 114.09961 L 278.9668 106.08203 L 278.03906 105.30078 L 280.95117 101.83203 L 287.05859 106.95508 L 284.14648 110.42383 L 283.2168 109.64844 L 275.22656 119.16992 L 270.6875 119.56641 L 263.875 113.85352 L 263.48047 109.31445 L 271.4707 99.787109 L 270.54297 99.013672 L 273.45312 95.539062 z M 122.84766 95.716797 L 126.20117 99.857422 L 122.66211 102.72656 L 122.15625 102.10938 L 119.4043 104.33594 L 121.48438 106.89453 L 122.12109 106.37891 L 121.62109 105.75586 L 125.14258 102.9043 L 129.00195 107.66797 L 125.48047 110.51953 L 124.97852 109.90234 L 124.33594 110.41992 L 126.39648 112.96094 L 129.14648 110.73438 L 128.64258 110.11133 L 132.18555 107.24219 L 135.55469 111.4082 L 124.00781 120.76172 L 121.14062 117.2168 L 122.08203 116.45508 L 115.0918 107.83008 L 114.15039 108.58789 L 111.29688 105.06641 L 122.84766 95.716797 z M 106.6875 109.75781 L 110.10938 112.73047 L 109.3125 113.64453 L 117.69336 120.92383 L 118.48438 120.01172 L 121.92383 123.00195 L 117.53516 128.04883 L 107.15234 126.21289 L 110.53711 129.1543 L 111.33203 128.24219 L 114.77148 131.23047 L 109.53906 137.24609 L 106.10156 134.25977 L 106.89258 133.34375 L 98.517578 126.0625 L 97.720703 126.97656 L 94.304688 124.00391 L 98.611328 119.04883 L 109.2207 120.91797 L 105.67188 117.83398 L 104.87695 118.74609 L 101.45898 115.77148 L 106.6875 109.75781 z M 197.03516 110.2832 C 198.5162 110.28368 200.00612 110.32215 201.50195 110.39844 C 249.40595 112.8451 286.22072 153.62419 283.77539 201.49219 C 281.32872 249.37885 240.54844 286.21229 192.64844 283.76562 C 144.78044 281.32563 107.96492 240.52791 110.40625 192.64258 C 112.77646 146.26916 151.12288 110.26839 197.03516 110.2832 z M 292.8125 112.51172 L 296.53711 117.83398 L 292.83008 126.13867 L 301.90039 125.49023 L 305.625 130.81055 L 301.91406 133.4082 L 301.2207 132.41602 L 292.13086 138.78125 L 292.82422 139.77344 L 289.09375 142.38867 L 284.51953 135.85547 L 288.25195 133.24414 L 288.94727 134.23828 L 293.23242 131.23438 L 284.71094 131.82227 L 288.17578 124.01172 L 283.88867 127.01562 L 284.58594 128.00781 L 280.85156 130.62109 L 276.2793 124.08789 L 280.01172 121.47852 L 280.70703 122.4707 L 289.79492 116.10352 L 289.09961 115.11328 L 292.8125 112.51172 z M 196.95898 124.67188 C 190.88865 124.68971 184.81795 125.45017 178.75195 126.9375 C 178.73329 126.8935 178.52274 127.02243 178.08008 127.25977 C 177.68141 127.47443 177.181 127.85124 176.625 128.39258 C 176.057 128.95258 175.58496 129.73376 175.1543 130.73242 C 174.71563 131.74576 174.48776 133.01392 174.48242 134.53125 C 174.47042 143.94858 174.48242 153.36491 174.48242 162.76758 L 174.48242 191.00977 C 174.48242 192.8631 174.85583 194.41815 175.5625 195.63281 C 176.28517 196.87281 177.29704 197.87263 178.73438 198.2793 C 187.78371 200.84196 196.88832 203.22671 205.95898 205.60938 C 206.30032 205.69471 206.56803 205.95938 206.83203 206.35938 C 207.0787 206.74071 207.24023 207.24071 207.24023 207.85938 C 207.2549 215.23271 207.24023 222.62081 207.24023 229.99414 L 207.24023 252.125 C 207.24023 252.15567 207.23556 252.28477 207.21289 252.52344 C 207.18222 252.8181 207.11055 253.10492 206.94922 253.40625 C 206.80655 253.67958 206.56436 253.91651 206.20703 253.95117 C 198.9177 254.63651 191.61107 254.36465 184.31641 253.33398 L 184.31641 245.5293 C 184.31641 244.71063 184.16523 244.05125 183.86523 243.53125 C 183.5519 242.98992 183.15238 242.71614 182.62305 242.60547 C 180.46971 242.14414 178.31349 241.68576 176.16016 241.23242 C 175.63482 241.12576 175.22987 241.25548 174.92188 241.63281 C 174.61654 242.00481 174.4707 242.57485 174.4707 243.35352 L 174.4707 263.17773 C 174.4707 263.9564 174.61254 264.63828 174.92188 265.23828 C 175.22187 265.82895 175.62682 266.21776 176.16016 266.37109 C 188.24149 269.76576 200.33573 270.41128 212.42773 268.22461 C 212.4544 268.22061 212.6757 268.14002 213.0957 267.91602 C 213.53437 267.68402 214.00445 267.28936 214.56445 266.69336 C 215.12445 266.09869 215.59506 265.32395 216.03906 264.25195 C 216.46973 263.21595 216.70703 261.89595 216.70703 260.25195 C 216.7337 250.02395 216.70703 239.81003 216.70703 229.58203 C 216.70703 219.35536 216.69903 209.12644 216.70703 198.89844 C 216.71236 197.10244 216.46557 195.6736 215.87891 194.57227 C 215.31357 193.5096 214.38104 192.82317 213.0957 192.45117 C 203.8397 189.76317 194.59323 187.11552 185.36523 184.74219 C 185.03857 184.65685 184.78209 184.40349 184.60742 184.04883 C 184.41942 183.68216 184.33008 183.24061 184.33008 182.72461 L 184.33008 162.625 L 184.33008 142.49219 C 184.33008 141.93219 184.43276 141.51201 184.60742 141.13867 C 184.79542 140.73067 185.04257 140.51656 185.36523 140.47656 C 192.65857 139.53256 199.96057 139.45928 207.25391 140.22461 C 207.25391 143.74194 207.26724 147.27139 207.25391 150.77539 C 207.25391 151.64472 207.32917 152.38871 207.5625 152.99805 C 207.7905 153.60738 208.25269 154.00485 208.94336 154.10352 C 211.09803 154.40485 213.24649 154.83404 215.42383 155.2207 C 216.05983 155.33137 216.51434 155.09422 216.76367 154.57422 C 217.01167 154.06355 217.11728 153.39593 217.11328 152.55859 C 217.10528 145.21593 217.13995 137.856 217.11328 130.5 C 217.11328 129.65733 216.88152 128.88651 216.49219 128.20117 C 216.08552 127.48917 215.66735 126.98666 215.16602 126.86133 C 209.10002 125.37866 203.02932 124.65404 196.95898 124.67188 z M 221.63477 129.32031 C 221.31395 129.28394 221.02606 129.4062 220.78906 129.6582 C 220.45173 130.01154 220.28134 130.54504 220.27734 131.23438 C 220.25468 134.55837 220.25468 137.88694 220.27734 141.21094 C 220.28134 141.90027 220.4424 142.57231 220.78906 143.18164 C 221.09706 143.73364 221.50013 144.12773 221.9668 144.28906 C 222.65213 144.5224 223.33516 144.75985 224.03516 144.97852 C 224.03516 163.72652 224.02548 182.47575 224.02148 201.20508 C 224.01348 219.93974 223.99082 238.67692 224.02148 257.40625 C 224.02148 258.98358 224.25612 260.18448 224.68945 260.89648 C 225.11612 261.59515 225.61206 262.01216 226.16406 262.16016 C 226.7334 262.32016 227.22481 262.31274 227.63281 262.19141 C 228.06748 262.06207 228.28683 261.97666 228.29883 261.97266 C 239.44549 256.29532 250.58718 250.16679 261.72852 243.82812 C 261.75518 243.81079 261.96182 243.68043 262.39648 243.37109 C 262.83648 243.06176 263.29243 242.6372 263.87109 242.0332 C 264.41243 241.46387 264.91051 240.76711 265.33984 239.92578 C 265.77051 239.09378 266.00834 238.1296 266.01367 237.07227 C 266.04034 224.65493 266.00301 212.23188 266.01367 199.81055 C 266.01767 187.40388 266.02539 174.98616 266.02539 162.54883 C 266.75072 162.87683 267.48194 163.19348 268.22461 163.52148 C 268.68994 163.72682 269.08696 163.74599 269.4043 163.61133 C 269.7403 163.46866 269.91006 163.14052 269.91406 162.72852 C 269.93673 160.68052 269.93673 158.63446 269.91406 156.5918 C 269.91006 156.14913 269.7363 155.7087 269.4043 155.2207 C 269.08163 154.7407 268.70061 154.35155 268.22461 154.07422 C 263.56194 151.37555 258.89261 148.70507 254.22461 146.06641 C 253.76861 145.80774 253.36421 145.77117 253.04688 145.95117 C 252.71088 146.13917 252.55469 146.51106 252.55469 147.03906 C 252.54135 149.5524 252.54135 152.08909 252.55469 154.62109 C 252.55469 155.14909 252.71888 155.68874 253.04688 156.19141 C 253.37354 156.68741 253.75928 157.06463 254.22461 157.2793 C 254.91128 157.59263 255.59626 157.88598 256.29492 158.19531 C 256.29492 170.99798 256.30292 183.80094 256.29492 196.59961 C 256.29092 209.40361 256.28125 222.19538 256.28125 234.99805 C 256.28125 235.30338 256.15731 235.61245 255.94531 235.92578 C 255.72265 236.25778 255.45319 236.49848 255.11719 236.64648 C 248.37052 239.61582 241.64678 242.52013 234.91211 245.32812 C 234.58144 245.46279 234.30798 245.40998 234.08398 245.19531 C 233.88665 244.99665 233.74805 244.73547 233.74805 244.35547 C 233.74805 228.40214 233.75772 212.43771 233.76172 196.48438 C 233.77105 180.51771 233.76172 164.56532 233.76172 148.58398 C 234.49239 148.86265 235.21294 149.16255 235.96094 149.44922 C 236.4356 149.63189 236.82586 149.5624 237.14453 149.28906 C 237.4832 149.0024 237.63672 148.52721 237.63672 147.92188 C 237.65005 144.99254 237.65005 142.06205 237.63672 139.13672 C 237.63672 138.51805 237.46986 137.91979 237.14453 137.31445 C 236.81653 136.71312 236.45827 136.26567 235.96094 136.01367 C 231.30094 133.66167 226.6388 131.35416 221.9668 129.41016 C 221.85346 129.36216 221.7417 129.33244 221.63477 129.32031 z M 90.789062 130.19336 L 94.716797 132.45508 L 94.109375 133.50586 L 103.7207 139.05664 L 104.32617 138.00586 L 108.27148 140.28125 L 104.2832 147.1875 L 100.33984 144.90625 L 100.94531 143.86133 L 91.333984 138.31055 L 90.726562 139.35938 L 86.804688 137.0957 L 90.789062 130.19336 z M 166.49805 132.06445 C 166.29905 132.04479 166.08104 132.09303 165.8457 132.20703 C 159.17904 135.46436 152.50024 139.0146 145.87891 142.69727 C 139.21757 146.4026 132.57412 150.2376 125.93945 154.07227 C 125.46879 154.3456 125.07853 154.7377 124.75586 155.20703 C 124.42386 155.69103 124.26634 156.14718 124.26367 156.58984 C 124.24901 158.63384 124.24901 160.68052 124.26367 162.72852 C 124.26367 163.13918 124.41986 163.43775 124.75586 163.59375 C 125.07853 163.74575 125.47412 163.71882 125.93945 163.52148 C 126.58479 163.24815 127.23401 162.93501 127.88867 162.65234 C 127.88867 174.14834 127.883 185.63815 127.875 197.13281 C 127.871 208.62481 127.875 220.12066 127.875 231.61133 C 127.22033 231.31533 126.56721 231.01918 125.92188 230.72852 C 125.46054 230.51785 125.06485 230.49561 124.74219 230.59961 C 124.41152 230.70228 124.26367 231.00817 124.26367 231.4375 L 124.26367 237.67773 C 124.26367 238.10307 124.41552 238.52499 124.74219 238.98633 C 125.06485 239.43699 125.46054 239.79069 125.92188 240.05469 C 132.56454 243.88002 139.19466 247.74389 145.86133 251.44922 C 152.47733 255.12655 159.1627 258.67074 165.83203 261.94141 C 166.30403 262.17474 166.71063 262.12555 167.0293 261.82422 C 167.3653 261.50689 167.52148 261.00022 167.52148 260.32422 C 167.54815 250.82955 167.52148 241.31102 167.52148 231.79102 C 167.52148 231.14168 167.35536 230.54107 167.08203 230.06641 C 166.80336 229.58241 166.41427 229.26425 165.96094 229.15625 C 163.75294 228.61892 161.54828 228.08616 159.34961 227.54883 C 158.89628 227.43949 158.5038 227.53442 158.23047 227.84375 C 157.9518 228.15308 157.79102 228.6229 157.79102 229.24023 L 157.79102 243.32617 C 157.79102 243.75151 157.66841 244.05131 157.45508 244.19531 C 157.22974 244.34731 156.96233 244.36666 156.625 244.22266 C 150.673 241.71866 144.71319 239.11005 138.75586 236.49805 C 138.43719 236.35938 138.1464 236.1276 137.92773 235.82227 C 137.72507 235.54093 137.5918 235.18561 137.5918 234.84961 L 137.5918 218.08594 L 137.5918 201.32617 C 137.5918 200.97284 137.71707 200.65998 137.92773 200.44531 C 138.13707 200.22131 138.43319 200.06427 138.75586 200.07227 C 142.16386 200.1936 145.56943 200.33707 148.99609 200.42773 C 149.44543 200.43973 149.83452 200.24418 150.11719 199.85352 C 150.39985 199.46418 150.53373 198.95857 150.53906 198.36523 C 150.54706 195.71857 150.55273 193.05596 150.55273 190.39062 C 150.55273 189.80396 150.41753 189.32488 150.13086 188.93555 C 149.84819 188.54621 149.45643 188.3722 149.00977 188.4082 C 145.5831 188.68154 142.17486 188.98168 138.76953 189.29102 C 138.44686 189.31768 138.15545 189.21247 137.93945 188.98047 C 137.73412 188.76047 137.60352 188.46633 137.60352 188.125 L 137.60352 173.77734 L 137.60352 159.43164 C 137.60352 159.04631 137.73812 158.71081 137.93945 158.38281 C 138.15945 158.03348 138.44686 157.77743 138.76953 157.63477 C 144.72286 154.9961 150.69129 152.42783 156.64062 149.92383 C 156.98462 149.77983 157.23799 149.80334 157.47266 150.02734 C 157.67932 150.23001 157.80469 150.52509 157.80469 150.98242 L 157.80469 164.03516 C 157.80469 164.66849 157.96681 165.14186 158.24414 165.50586 C 158.51614 165.86319 158.92061 165.99462 159.36328 165.89062 C 161.57261 165.37596 163.77114 164.82514 165.98047 164.23047 C 166.43647 164.1038 166.83028 163.76281 167.09961 163.24414 C 167.38228 162.68814 167.53516 162.07968 167.53516 161.40234 C 167.53516 152.20501 167.56182 143.00788 167.53516 133.81055 C 167.53516 133.13455 167.37302 132.63622 167.04102 132.32422 C 166.87768 132.17155 166.69705 132.08412 166.49805 132.06445 z M 308.10156 135.52539 L 311.04883 141.31445 L 306.21875 149.01953 L 315.29492 149.64648 L 318.24023 155.43164 L 314.20508 157.48633 L 313.6543 156.4082 L 303.76562 161.44531 L 304.32031 162.52344 L 300.26172 164.5918 L 296.64062 157.49023 L 300.70117 155.42383 L 301.25 156.50391 L 305.91211 154.12695 L 297.39258 153.51953 L 301.9082 146.26953 L 297.24609 148.64453 L 297.79492 149.72266 L 293.73633 151.79102 L 290.11719 144.69141 L 294.17773 142.62109 L 294.72656 143.70117 L 304.61523 138.66406 L 304.06055 137.58789 L 308.10156 135.52539 z M 86.59375 143.57422 L 90.771484 145.26367 L 88.695312 150.40625 L 86.333984 149.45703 L 85.490234 149.79297 L 84.382812 152.53516 L 84.746094 153.38672 L 93.845703 157.06445 L 94.673828 156.69336 L 95.785156 153.95312 L 95.433594 153.13281 L 93.660156 152.41406 L 93.085938 153.82812 L 89.267578 152.28516 L 91.919922 145.72461 L 99.337891 148.7207 L 101.11914 152.91992 L 97.785156 161.16602 L 93.587891 162.94727 L 80.845703 157.80078 L 79.064453 153.60156 L 82.396484 145.35547 L 86.59375 143.57422 z M 76.140625 162.55469 L 80.552734 163.57227 L 80.283203 164.75195 L 91.09375 167.25 L 91.369141 166.07031 L 95.808594 167.0957 L 94.306641 173.61328 L 84.275391 176.86914 L 88.642578 177.87695 L 88.917969 176.69727 L 93.357422 177.72266 L 91.5625 185.48828 L 87.123047 184.46094 L 87.392578 183.2832 L 76.582031 180.78516 L 76.306641 181.9707 L 71.894531 180.94727 L 73.371094 174.54883 L 83.615234 171.2168 L 79.033203 170.1582 L 78.763672 171.34375 L 74.347656 170.31836 L 76.140625 162.55469 z M 319.74023 163.17578 L 323.08203 177.64258 L 317.89258 178.84375 L 316.86328 174.40234 L 317.64453 174.22656 L 316.84766 170.77734 L 313.63867 171.51953 L 313.82422 172.32227 L 314.60156 172.14258 L 315.62109 176.55859 L 309.65039 177.93359 L 308.62695 173.51953 L 309.4082 173.3418 L 309.22266 172.53711 L 306.03516 173.27148 L 306.83008 176.72266 L 307.61133 176.54102 L 308.63672 180.97852 L 303.41797 182.18359 L 300.07812 167.71484 L 304.51562 166.6875 L 304.78711 167.86914 L 315.59961 165.37305 L 315.33008 164.19336 L 319.74023 163.17578 z M 323.9375 184.57031 L 324.1543 197.06836 L 320.98633 200.34961 L 315.83008 200.43945 L 314.47266 199.12891 L 313.16211 200.48633 L 308.58789 200.5625 L 308.60742 201.77539 L 304.05273 201.85547 L 303.9375 195.09766 L 311.4707 194.96484 L 312.11328 194.30078 L 312.06445 191.53906 L 308.42969 191.59961 L 308.44922 192.81055 L 303.89648 192.89258 L 303.75977 184.92188 L 308.3125 184.8418 L 308.33203 186.05469 L 319.42773 185.85938 L 319.4082 184.65039 L 323.9375 184.57031 z M 71.619141 188.46484 L 76.949219 188.55859 L 76.873047 193.11328 L 76.072266 193.09961 L 76.011719 196.63477 L 79.304688 196.69727 L 79.320312 195.87109 L 78.519531 195.85547 L 78.597656 191.32617 L 84.732422 191.42969 L 84.650391 195.96484 L 83.849609 195.94922 L 83.837891 196.77344 L 87.107422 196.82812 L 87.166016 193.29297 L 86.371094 193.27734 L 86.447266 188.72461 L 91.800781 188.81836 L 91.542969 203.66992 L 86.988281 203.58789 L 87.009766 202.37695 L 75.914062 202.18359 L 75.890625 203.39453 L 71.361328 203.31836 L 71.619141 188.46484 z M 319.52539 191.4043 L 316.5957 191.45898 L 316.64648 194.2207 L 317.30859 194.86328 L 318.93164 194.83398 L 319.57422 194.16797 L 319.52539 191.4043 z M 297.38477 232.61523 L 302.70703 235.32617 L 301.75 237.20508 L 305.51758 248.80078 L 310.86914 251.5293 L 311.59375 250.10547 L 316.94336 252.83203 L 312.17188 262.19336 L 306.82227 259.46875 L 307.54883 258.04297 L 302.19922 255.31641 L 290.60156 259.08594 L 289.4707 261.30664 L 284.14844 258.59375 L 289.88867 247.32617 L 295.21094 250.03711 L 294.73242 250.97852 L 299.02734 249.58008 L 297.63281 245.28516 L 297.14062 246.25195 L 291.81836 243.54102 L 297.38477 232.61523 z M 100.42383 239.57031 L 105.51758 248.75977 L 100.29492 251.65625 L 99.519531 250.25977 L 87.453125 256.94922 L 87.144531 258.10547 L 89.035156 261.51172 L 90.162109 261.83594 L 102.23047 255.14648 L 101.45508 253.75195 L 106.67969 250.85547 L 111.77344 260.04492 L 106.54883 262.93945 L 105.77539 261.54492 L 91.447266 269.48633 L 85.671875 267.83203 L 79.990234 257.58008 L 81.644531 251.80664 L 95.976562 243.86328 L 95.201172 242.4668 L 100.42383 239.57031 z M 281.32812 260.99414 L 286.86328 266.1582 L 282.79102 270.52539 L 281.62305 269.4375 L 280.53516 270.60352 L 291.23242 280.58008 L 292.32031 279.41211 L 296.71094 283.50781 L 289.54688 291.19141 L 285.1543 287.0957 L 286.24609 285.92773 L 275.54883 275.95312 L 274.45703 277.12109 L 275.625 278.20898 L 271.53125 282.59961 L 265.99609 277.43945 L 281.32812 260.99414 z M 113.66211 263.0332 L 119.88867 269.04492 L 116.69531 282.87891 L 121 278.42188 L 119.84961 277.31055 L 124 273.01562 L 131.55664 280.31445 L 127.4082 284.61133 L 126.26172 283.50195 L 116.09766 294.02344 L 117.24805 295.13281 L 113.07812 299.45117 L 106.73633 293.33008 L 109.86523 279.78906 L 105.76172 284.04102 L 106.91016 285.15039 L 102.74023 289.46875 L 95.181641 282.16992 L 99.351562 277.85156 L 100.5 278.96094 L 110.66211 268.4375 L 109.51367 267.32812 L 113.66211 263.0332 z M 261.05664 280.6582 L 264.56836 285.49023 L 263.27539 286.42773 L 271.87305 298.26367 L 273.16602 297.32227 L 276.69336 302.17969 L 268.19336 308.35547 L 264.66406 303.5 L 265.95508 302.56055 L 257.35742 290.72656 L 256.06836 291.66602 L 252.55664 286.83398 L 261.05664 280.6582 z M 136.82812 283.49023 L 145.64062 289.21289 L 142.38867 294.22266 L 141.04883 293.35156 L 133.08203 305.61914 L 134.42188 306.49023 L 131.15039 311.52344 L 122.33984 305.80078 L 125.60938 300.76758 L 126.94727 301.63672 L 134.91602 289.36914 L 133.57617 288.5 L 136.82812 283.49023 z M 243.17773 291.86914 L 248.82031 293.92383 L 251.03516 298.67188 L 244.40625 301.76172 L 243.28711 299.36133 L 242.16992 298.92773 L 238.63672 300.57422 L 238.2207 301.72266 L 239.35547 304.15234 L 240.50195 304.57031 L 247.56445 301.27539 L 253.20703 303.33203 L 256.47461 310.33594 L 254.42188 315.98047 L 243.79688 320.93359 L 238.15234 318.87891 L 235.99219 314.24805 L 242.62305 311.15625 L 243.68945 313.44531 L 244.82031 313.83203 L 248.34961 312.18555 L 248.75391 311.08203 L 247.67383 308.76562 L 246.55664 308.33594 L 239.46289 311.64258 L 233.82031 309.58789 L 230.5 302.46875 L 232.55273 296.82227 L 243.17773 291.86914 z M 149.85742 292.14453 L 160.00195 295.63867 L 158.05859 301.28516 L 157.21094 300.99414 L 157.13086 310.35547 L 162.79883 302.91992 L 161.98438 302.63867 L 163.92969 296.99023 L 174.3457 300.57812 L 172.40234 306.22656 L 170.13672 305.44531 L 160.75391 317.68359 L 162.05273 318.13281 L 160.09766 323.80859 L 146.7207 319.20117 L 148.67773 313.52539 L 149.76172 313.90039 L 149.93555 298.48828 L 147.91211 297.79297 L 149.85742 292.14453 z M 218.68164 300.05469 L 223.60156 303.5 L 224.7832 310.19922 L 223.35938 312.23438 L 225.39258 313.6582 L 226.44141 319.60352 L 228.01367 319.32617 L 229.05664 325.23828 L 220.28125 326.78516 L 218.55664 317.00586 L 217.55859 316.30664 L 213.97266 316.9375 L 214.80469 321.65625 L 216.37695 321.37891 L 217.41992 327.29102 L 207.07227 329.11523 L 206.03125 323.20117 L 207.60156 322.92578 L 205.0625 308.51953 L 203.49023 308.79688 L 202.45312 302.91602 L 218.68164 300.05469 z M 178.59375 301.01562 L 198.0957 302.72461 L 197.48438 309.72266 L 191.50195 309.19922 L 191.59375 308.15039 L 186.94727 307.74219 L 186.56836 312.07031 L 187.65234 312.16406 L 187.74414 311.11328 L 193.69336 311.63477 L 192.98828 319.68359 L 187.03906 319.16406 L 187.13086 318.11523 L 186.04883 318.01953 L 185.67383 322.31445 L 190.31836 322.72266 L 190.41016 321.66992 L 196.39258 322.19336 L 195.77734 329.22656 L 176.27344 327.51758 L 176.79688 321.53711 L 178.38867 321.67773 L 179.66211 307.10547 L 178.07227 306.96484 L 178.59375 301.01562 z M 215.85156 306.61914 L 212.26562 307.25 L 212.93555 311.05664 L 216.52148 310.42383 L 217.2207 309.42578 L 216.84961 307.31836 L 215.85156 306.61914 z "
       transform="matrix(0.75000002,0,0,-0.75000002,36.1815,331.8119)" /></g></svg>
